<svg xmlns="http://www.w3.org/2000/svg" xmlns:xlink="http://www.w3.org/1999/xlink" width="1935.002" height="1094.492" viewBox="0 0 1935.002 1094.492">
  <defs>
    <style>
      .cls-1 {
        isolation: isolate;
      }

      .cls-2 {
        fill: #fff;
        stroke: #b9cedd;
        stroke-width: 3px;
      }

      .cls-3 {
        filter: url(#Path_20);
      }

      .cls-4 {
        filter: url(#Path_19);
      }

      .cls-5 {
        filter: url(#Path_18);
      }

      .cls-6 {
        filter: url(#Path_17);
      }

      .cls-7 {
        filter: url(#Path_16);
      }

      .cls-8 {
        filter: url(#Path_15);
      }

      .cls-9 {
        filter: url(#Path_14);
      }

      .cls-10 {
        filter: url(#Path_13);
      }

      .cls-11 {
        filter: url(#Path_12);
      }

      .cls-12 {
        filter: url(#Path_11);
      }

      .cls-13 {
        filter: url(#Path_10);
      }
    </style>
    <filter id="Path_10" x="766.492" y="40.963" width="1130.203" height="922.053" filterUnits="userSpaceOnUse">
      <feOffset dy="2" input="SourceAlpha"/>
      <feGaussianBlur stdDeviation="2" result="blur"/>
      <feFlood flood-opacity="0.161"/>
      <feComposite operator="in" in2="blur"/>
      <feComposite in="SourceGraphic"/>
    </filter>
    <filter id="Path_11" x="1175.085" y="759.88" width="63.072" height="113.317" filterUnits="userSpaceOnUse">
      <feOffset dy="2" input="SourceAlpha"/>
      <feGaussianBlur stdDeviation="2" result="blur-2"/>
      <feFlood flood-opacity="0.161"/>
      <feComposite operator="in" in2="blur-2"/>
      <feComposite in="SourceGraphic"/>
    </filter>
    <filter id="Path_12" x="1640.924" y="774.061" width="280.906" height="222.326" filterUnits="userSpaceOnUse">
      <feOffset dy="2" input="SourceAlpha"/>
      <feGaussianBlur stdDeviation="2" result="blur-3"/>
      <feFlood flood-opacity="0.161"/>
      <feComposite operator="in" in2="blur-3"/>
      <feComposite in="SourceGraphic"/>
    </filter>
    <filter id="Path_13" x="1635.219" y="599.367" width="76.566" height="89.208" filterUnits="userSpaceOnUse">
      <feOffset dy="2" input="SourceAlpha"/>
      <feGaussianBlur stdDeviation="2" result="blur-4"/>
      <feFlood flood-opacity="0.161"/>
      <feComposite operator="in" in2="blur-4"/>
      <feComposite in="SourceGraphic"/>
    </filter>
    <filter id="Path_14" x="1784.747" y="658.718" width="150.255" height="92.069" filterUnits="userSpaceOnUse">
      <feOffset dy="2" input="SourceAlpha"/>
      <feGaussianBlur stdDeviation="2" result="blur-5"/>
      <feFlood flood-opacity="0.161"/>
      <feComposite operator="in" in2="blur-5"/>
      <feComposite in="SourceGraphic"/>
    </filter>
    <filter id="Path_15" x="1541.153" y="610.619" width="85.105" height="101.339" filterUnits="userSpaceOnUse">
      <feOffset dy="2" input="SourceAlpha"/>
      <feGaussianBlur stdDeviation="2" result="blur-6"/>
      <feFlood flood-opacity="0.161"/>
      <feComposite operator="in" in2="blur-6"/>
      <feComposite in="SourceGraphic"/>
    </filter>
    <filter id="Path_16" x="321.899" y="594.637" width="334.26" height="499.855" filterUnits="userSpaceOnUse">
      <feOffset dy="2" input="SourceAlpha"/>
      <feGaussianBlur stdDeviation="2" result="blur-7"/>
      <feFlood flood-opacity="0.161"/>
      <feComposite operator="in" in2="blur-7"/>
      <feComposite in="SourceGraphic"/>
    </filter>
    <filter id="Path_17" x="0" y="69.859" width="579.568" height="477.322" filterUnits="userSpaceOnUse">
      <feOffset dy="2" input="SourceAlpha"/>
      <feGaussianBlur stdDeviation="2" result="blur-8"/>
      <feFlood flood-opacity="0.161"/>
      <feComposite operator="in" in2="blur-8"/>
      <feComposite in="SourceGraphic"/>
    </filter>
    <filter id="Path_18" x="497.746" y="0" width="353.953" height="158.512" filterUnits="userSpaceOnUse">
      <feOffset dy="2" input="SourceAlpha"/>
      <feGaussianBlur stdDeviation="2" result="blur-9"/>
      <feFlood flood-opacity="0.161"/>
      <feComposite operator="in" in2="blur-9"/>
      <feComposite in="SourceGraphic"/>
    </filter>
    <filter id="Path_19" x="474.689" y="56.735" width="104.939" height="91.301" filterUnits="userSpaceOnUse">
      <feOffset dy="2" input="SourceAlpha"/>
      <feGaussianBlur stdDeviation="2" result="blur-10"/>
      <feFlood flood-opacity="0.161"/>
      <feComposite operator="in" in2="blur-10"/>
      <feComposite in="SourceGraphic"/>
    </filter>
    <filter id="Path_20" x="299.985" y="52.849" width="111.069" height="49.564" filterUnits="userSpaceOnUse">
      <feOffset dy="2" input="SourceAlpha"/>
      <feGaussianBlur stdDeviation="2" result="blur-11"/>
      <feFlood flood-opacity="0.161"/>
      <feComposite operator="in" in2="blur-11"/>
      <feComposite in="SourceGraphic"/>
    </filter>
  </defs>
  <g id="Background" class="cls-1" transform="translate(7.496 5.296)">
    <g class="cls-13" transform="matrix(1, 0, 0, 1, -7.5, -5.3)">
      <path id="Path_10-2" data-name="Path 10" class="cls-2" d="M396.2,331.53l-8.28,12.363-5.517,6.183-11.036,6.8-1.657,5.565s-4.416,4.947-3.862,8.039a65.488,65.488,0,0,1,.554,8.655s-7.726,8.037-11.038,10.509-7.728,8.037-7.728,8.037a33.771,33.771,0,0,1-4.413,4.947c-1.655,1.233-4.413,4.944-6.622,8.655s-4.416,6.18-5.519,8.034a40.643,40.643,0,0,0-6.071,12.983c-1.655,6.8-6.071,14.837-6.071,14.837l-1.106,3.09c.554,10.511.552,12.365,1.657,16.076s2.209,2.469,1.1,10.509-1.1,11.127-2.207,14.837-4.416,10.506-5.517,13.6,2.207,8.652,2.207,8.652,1.657,8.039.552,9.893.552,5.565.552,5.565,6.622,4.326,8.832,6.8,6.071,6.183,6.622,8.037,4.967,10.511,5.519,12.365,4.967,8.652,6.071,10.509,6.622,8.657,6.622,8.657,7.174,6.177,8.832,8.652,6.622,3.708,8.275,5.562,5.519,1.233,7.726,3.093,6.622-1.239,8.831,0,8.28-1.236,9.935-2.472,5.517-5.562,8.277-3.711,4.413,0,6.622.618S413.859,585,416.066,585s7.726-2.475,9.381-2.475,7.177-3.714,9.386-3.714,4.965-2.466,7.723-1.233,1.655-2.469,6.622-.618,6.622,0,8.277,1.851,3.867.005,5.522,2.477,4.413,4.323,4.965,6.8,3.862,4.949,3.862,4.949l3.312.615s4.418-3.708,5.519-1.233,6.071,1.857,6.071,1.857l4.965,6.18,1.657,2.472s3.312,9.893,2.758,13.6-.552,11.745-2.207,13.6-2.758,9.893-2.758,9.893-2.209,2.472,2.758,7.419a81.987,81.987,0,0,1,9.935,11.742c1.657,2.475,6.073,9.278,6.62,13.6s1.657,6.8,3.867,12.363,4.965,6.183,5.517,12.368,1.655,6.183,1.1,10.506-2.207,4.947-.552,8.037,3.859,8.657,3.313,10.511-1.657,9.891-1.657,9.891l-1.1,3.711-4.965,10.514-3.312,5.559c-1.1,4.326-3.31,8.655-2.758,14.837s-2.758,6.18,1.655,12.36,6.62,12.986,9.381,18.551a53.607,53.607,0,0,1,4.965,14.835c.554,3.711,2.761,4.95,3.864,9.893s1.655,7.416,1.655,10.509-.554,11.129.554,12.983,1.655,7.421,2.207,9.893-1.657,3.093,1.655,7.421,5.519,6.8,7.726,9.891,1.655,1.854,3.313,6.183,3.862,6.8,4.416,10.509,1.1,12.981,2.758,17.309,3.862,8.657,3.862,8.657,6.073,4.326,8.28,3.708,6.622-6.177,9.935-4.326,6.071,0,8.829,0,5.519-3.711,8.28-3.711,6.62-4.947,8.832-3.708,4.963-1.241,7.723-4.331,4.416-5.559,9.381-10.506,4.416-4.949,7.726-8.039,6.625-9.893,10.487-11.129,4.965-5.559,6.068-8.652,1.655-4.947,3.313-7.421.552.626,3.312-7.416,6.076-11.127,8.834-12.983,4.413-5.562,6.068-6.183,4.416,1.854,3.313-3.711,0-13.6-1.1-15.453-2.763,4.323-2.209-4.952,6.622-18.545,6.622-18.545,8.277-11.745,11.038-13.6,3.31-3.708,7.177-6.183,12.139-8.652,12.139-11.745,3.313-11.129,3.313-12.986,0-3.708-1.1-14.219,1.1-8.037-2.209-17.927-3.866-22.256-6.071-25.346-1.106-11.132-1.106-13.6,3.867-8.655,5.522-11.127,8.829-12.368,8.829-12.368,11.036-14.217,14.9-21.015,7.726-12.983,10.484-15.455,9.383-8.042,13.245-14.222S759.336,585,759.89,583.139s4.962-8.034,4.962-8.034,6.071-8.039,7.177-12.365,6.617-28.439,5.514-27.2-7.723,2.472-9.932,3.09,3.315,3.09-12.693,1.857-24.278,1.854-24.278,1.854c-4.97-1.239-8.832,4.944-10.489-3.711s-2.761-13.6-6.068-19.781-5.522-8.655-10.484-16.694-4.418-4.329-8.834-10.506-5.519-4.331-8.277-12.365-4.965-4.944-8.277-16.073-5.519-12.368-7.174-18.548-3.862-8.039-4.967-13.6-13.794-34-15.452-35.857-4.416-11.747-3.864-9.891,8.28,8.037,8.28,8.037,4.413-1.857,6.071-1.857,8.277,6.8,8.277,9.273,11.595,14.222,14.351,22.877,6.076,14.837,6.622,17.309,6.071,12.365,8.28,16.076,9.378,11.127,10.482,14.837,11.592,16.073,11.592,24.11,4.962,18.545,5.517,21.017,10.484,5.567,10.484,5.567l13.247-3.711s19.865-14.222,22.074-14.222,19.87-9.273,19.87-9.273,7.172-7.416,12.137-11.742,10.486-12.363,11.592-16.076,3.31-4.326,7.723-9.893,10.486-11.127,6.625-14.837-6.073-2.472-11.59-8.655-4.967-4.944-8.832-12.983.552-17.309-7.728-8.034-4.965,11.745-13.245,13.6-11.59,8.034-15.452,1.851-7.723-2.472-9.935-11.747-3.864-9.893-4.413-13.6,0-3.711-4.416-12.986-1.1-23.492,1.655-15.455,7.174,9.273,14.351,14.837,10.487,9.893,17.107,10.511,12.141,0,13.245,1.233,2.207-.615,4.968.618,3.859-1.851,4.965,3.09,7.174,5.565,9.932,8.655,2.761,1.857,9.937,3.09a123.209,123.209,0,0,0,17.111,1.239l10.482-.621,12.142,1.233s8.834,5.565,11.038,5.565,2.758,6.8,8.277,10.511,6.622,4.326,9.932,8.655,2.761,6.183,7.174,10.509,11.595-.615,12.7-2.466,6.618-4.947,5.519,0,5.514,3.087,3.859,14.837-2.761,8.652,0,16.691,14.9,32.765,15.454,40.183,3.862,4.947,4.413,11.75,3.862,9.27,3.862,14.217,3.867,6.18,4.416,9.893,6.625.615,8.28,0,9.381-8.657,9.381-8.657,3.317-1.233,2.761-7.419,0-4.944,0-14.217-3.31-9.273-1.655-18.543,6.068-14.84,7.174-19.166,5.519-11.745,7.723-12.365,14.351-7.416,17.111-11.747,7.174-9.273,11.59-14.217,12.139-11.127,13.8-9.273,1.1,1.236,3.864,1.236,7.726,2.475,11.587,3.093,11.592,11.127,13.247,16.691.552,4.326,6.622,12.365,11.59,3.087,11.59,12.981,0,9.273,2.761,12.983,6.068-6.8,9.378-5.562,3.862-1.236,6.62,8.655,4.413,9.893,4.97,19.784-.554.618-.554,8.652-.554,8.657.554,16.073,4.96,9.9,4.413,11.132c0,0,3.31-10.509,2.2-17.93s0-17.925,2.761-21.015,5.522-6.183,7.726,1.854,3.313,1.854,8.277,11.127,9.383,7.416,9.935,11.745,3.317,4.949,7.174,8.655,7.174-.615,11.59-4.326,16.555-17.312,17.111-22.877,5.517-4.329-3.315-18.543-8.832-19.166-18.212-27.821-14.9-9.273-7.721-20.4,10.486-18.545,14.9-15.453,12.137,2.469,12.137,14.837-2.207,25.964,5.519,11.127,11.592-23.492,9.381-21.015,4.967-4.947,4.967-4.947.554-5.565,9.937-8.037,12.137-3.711,15.451-5.565,12.693-14.222,14.348-19.784,6.071-15.455,4.968-19.781-6.625-25.346-7.728-24.731-.549.621-7.721-8.034-12.144-14.837-13.247-18.548-3.864-4.329-.554-9.273,4.97-4.326,5.522-8.655,4.962-8.037-3.315-4.944-2.207,1.239-9.381.621-25.936,4.326-16.552-8.655,12.134-21.017,13.792-21.017,9.937-10.511,10.486-.621,3.862,7.416,4.416,13.6,11.59-6.8,11.59-6.8a16.828,16.828,0,0,1,6.62,4.326c2.761,3.09,2.761,12.983,2.761,12.983s-2.207-3.093,3.864,1.854,12.691,2.472,12.691,12.983,0,11.129,3.864,13.6,7.723,1.239,11.041-1.854,8.827-14.219,8.827-14.219.552-4.329-8.277-10.511-14.348-10.506-17.656-13.6-2.209-12.363,1.1-16.076,4.967-5.565,3.864-10.509,1.658-8.657,9.935-8.039,9.932-.615,9.932-.615,1.66,1.233,1.66-2.475,10.482-21.02,7.721-21.02.559-4.326-1.1-11.127,5.519-17.309-.549-22.256-7.728-7.421-11.59-14.837-3.315-8.655-17.661-10.511-20.971,3.711-24.283-1.233-4.965,7.416-7.172-7.421,3.312-24.731,3.312-24.731,8.829-6.18,11.033-10.509,11.036-6.183,18.217-3.09,17.656,2.472,26.49,4.331,8.277,8.034,12.693,0,0-11.747,3.31-16.076,7.174-11.129,9.932-6.8,8.285,8.655,12.7,3.09,6.068-6.18,6.068-6.18l2.2,2.475s4.967-3.1,4.967,2.466,4.97,11.75,2.209,16.076-6.62,3.711-6.62,14.219,0,8.657,6.066,17.315,9.935,1.233,11.038,10.509,2.2,7.421,8.28,13.6,4.963,6.18,9.381,9.891,6.625,7.421,6.625,1.239.552-9.273,0-14.837,4.416-9.893,1.1-19.166-.549-8.655-7.172-15.455-11.041,1.239-13.242-8.655,10.482-14.219,13.8-15.455,8.273-8.655,9.376-3.708-8.275,22.874,7.731,3.708,8.829-11.127,8.829-11.127,8.277-1.236,9.932,0,6.076-5.565,4.413-4.944-17.653-9.893-17.653-9.893l-11.595-7.416s3.867-3.093,6.625-2.472,3.315-6.183,6.076-6.8,21.52,4.331,25.386,6.8,17.656,3.09,16,1.854-10.482-8.655-11.036-11.129-19.867-7.419-25.936-6.8-11.588,2.469-16.555.615-12.142-6.8-16.006-6.8S1305.7,61.381,1303.491,62s-5.521,12.363-7.177,10.509-4.413-1.857-12.144-4.329-18.21-4.329-32.009-5.562-23.172,1.236-27.036-3.711-12.139-3.09-21.522-3.711-20.419,0-25.386,0-16.552-.615-19.313-1.236-6.071-4.947-9.381-5.562-2.763-1.854-9.383-3.09-6.071-9.273-8.277-2.475-1.106,4.947-4.416,7.419-6.622,7.419-8.832,7.419-11.033.618-12.693-.618-4.416-2.472-9.935-2.472-5.519.615-12.693-.621-12.693-.621-19.316-4.326-6.622-6.183-12.142-5.565-5.514-1.236-13.245-1.236-17.1,4.947-22.074,5.565-16-.621-19.865-2.475-4.967-6.18-19.318-4.329-22.626,1.857-19.867-3.09,6.071-9.891,7.726-10.509,5.517-3.708,2.756-4.944-5.517-3.09-12.137-3.711-6.076,2.472-16.006,1.236,5.519-4.326-14.9-3.708-25.386,2.472-27.593,2.472-4.97-4.944-10.486,2.472-13.25,11.745-24.283,12.363-11.59-1.236-22.071,3.09-17.111-1.236-14.9,8.655,4.967,13.6,4.967,15.455-4.967,14.219-11.036,6.8S802.394,31.7,807.361,51.485s16,26.585,5.519,29.675-9.386-1.236-11.041-2.475,0-9.891-.552-14.837-1.655-8.037-3.862-10.509-1.657-6.183-6.071-7.419-.552-3.711-7.726-3.711-13.242-4.947-11.587,6.183,3.307,3.711,7.721,14.219,12.693,3.09,6.625,10.509-22.074,4.947-25.938,1.857-2.758,1.236-9.937-4.329-4.962-9.893-13.24-5.565-11.038,12.365-14.351,9.273-11.036,4.326-13.8.621-13.8-3.711-16,0-8.832,3.09-18.212,8.037-6.625.615-18.212,11.127S638.483,113.3,634.624,106.5s-24.837-18.545-16.557-20.4,12.142-5.562,16.557-1.236,11.592,3.093,12.691,0,6.073-6.183-.552-9.891-7.174-1.239-17.658-5.565,0-3.09-14.351-5.565-20.422-3.708-24.283-4.944-9.381,0-14.9-.618-9.381-1.854-14.351-1.236-7.723-.618-14.348,4.947-11.592,8.037-16.006,12.363-16,12.983-19.313,16.076-14.9,12.981-16.006,16.691,1.1,6.8-3.312,9.273-8.829,2.472-12.142,3.09,0-5.565-3.312.618-2.207,28.439.552,25.346,1.1-12.981,13.245-3.705,19.87,8.034,19.316,16.689,8.277,8.037,9.381,9.893,6.622-2.475,6.622-2.475,12.141-8.655,12.141-12.981,7.726-14.219,7.726-14.219-5.522-3.09-5.522-9.273,1.66-8.039,2.761-14.222-6.071,0,10.487-11.747,17.658-3.705,17.658-3.705,2.2,2.472-.554,6.18-7.726,13.6-8.829,14.837,4.967,11.129,7.723,11.129,8.28-2.475,11.592-1.857,8.829-1.851,10.484-.615,5.519,4.944,2.758,8.037-8.831,6.8-13.242,5.565-11.041-9.893-7.177,2.472-.552,15.455-3.864,14.837-10.484-6.8-9.381,2.475-7.172,15.453-8.829,15.453a38.32,38.32,0,0,1-4.965-.618s-4.97-.621-7.726-.621-8.28,3.09-9.935,5.565-3.864.621-6.622.621,0-3.711-5.519-4.947-8.829-2.472-12.139,0-8.277,3.708-10.487,1.854,1.106-6.185-3.312-3.708-7.726,9.273-9.381,9.893,4.967,0-1.655.615-9.381,2.477-12.693,3.711,1.1,8.655-4.967,11.127-1.653-3.09-7.726,2.472-7.177,10.511-9.381,11.129-1.655,1.854-6.622,2.472-4.413,1.236-7.177,1.854.554,1.857-5.517.618-10.487,1.239-9.383,3.711,21.522,9.273,6.071,8.655-10.484,2.472-7.174,4.944,4.965,4.944,6.622,5.565,4.413,8.039,4.413,8.039,4.416-.621,1.657,3.708,1.1,5.565-1.657,11.129-2.758,1.854-4.965,3.09-5.519,5.565-11.592,1.854-10.482-5.565-17.658-6.18-2.209-1.854-7.174,2.469-6.071,9.275-5.517,14.837,1.1,12.983-.554,16.694-1.655,7.419-.554,12.983a13.672,13.672,0,0,0,4.418,8.039s7.726,1.233,9.381,1.854,4.967-1.236,9.381,1.851,8.831,4.331,11.59.621,13.8-8.037,17.111-11.745,5.517-4.944,3.862-8.655,3.312-12.983,6.071-14.837,8.829-3.711,8.829-3.711l6.622-11.127s5.519-6.8,8.277-6.183,18.21,6.8,17.109-1.233,1.1-10.511,2.758-7.421,6.071,1.854,6.071,1.854a3.185,3.185,0,0,1,3.862.621c1.655,1.851,3.862,9.893,7.174,11.745s6.071,3.711,8.28,4.944,4.416,0,8.832,4.329,8.829,6.8,9.378,8.655,4.418,6.183,4.418,6.183,3.862,1.236,2.758,3.711-6.62,9.893-9.381,11.127-9.932-1.239-7.174,1.236,6.622,5.565,8.277,3.708S538.588,303.1,538.588,303.1s-.552.618,0-3.093,0-8.034,2.761-6.18,4.416,4.329,5.519,1.857,2.207-1.236-.554-3.09-9.381-12.365-12.693-12.983-11.592-6.8-11.592-6.8-1.653-1.854-5.517-6.8-4.965-3.711-6.073-8.039-4.416-9.891,1.657-8.655,9.932,5.562,15.452,9.273,4.418,4.944,9.383,8.655,5.522,7.421,9.381,6.8,8.28,2.472,8.28,8.037,1.1,11.745,2.2,12.983,4.413,3.711,5.519,6.183,3.313,8.655,4.965,11.127a76.442,76.442,0,0,1,4.967,7.421c1.655,3.09,2.207-.621,3.862.618s3.864.615,3.864-1.857.549-6.8.549-6.8,7.731-2.472,5.524-3.711-8.834-8.655-8.28-11.127,0-7.416,2.756-6.8,5.522,6.18,11.592,1.233,13.245-7.419,11.036,0,.557,8.652,0,16.691,2.212,5.565,6.076,9.893,6.62,4.949,9.378,6.183,7.174.621,11.592,1.239,7.174-1.857,11.038-.618,12.691-.621,14.348.618,8.28-2.472,8.829,1.854,2.761-.618,1.106,9.273a128.037,128.037,0,0,1-3.864,16.691c-6.071,12.983-8.277,16.076-11.038,16.694s-4.413,2.472-9.378,1.854-11.038,0-18.212-1.854-20.421,1.854-25.938-1.857-13.245-.618-16.56-4.944-8.827-3.711-11.036-6.183-3.31-9.27-3.31.621-4.967,10.509-6.071,15.455,1.653,2.472-4.418,1.854-7.726,3.09-16.555-4.326-13.245-7.419-17.658-10.511-8.831,5.562-13.245-4.326-10.487-1.857-11.038-9.893,0-7.416.552-12.363,6.622-9.273,3.864-11.127-.554-4.947-4.416-3.09-9.381,2.472-13.8,4.326,9.932,0-11.59,1.857-27.6,4.326-27.6,4.326-1.655-1.236-4.416,1.236-6.622,6.183-10.484,4.329-6.071-1.239-9.381-.618-5.517-3.09-9.381,0-8.277,4.326-9.935,3.087c-1.716-1.263-4.487-6.207-4.487-6.207Z" transform="translate(461.4 29.67)"/>
    </g>
    <g class="cls-12" transform="matrix(1, 0, 0, 1, -7.5, -5.3)">
      <path id="Path_11-2" data-name="Path 11" class="cls-2" d="M523.485,279.487c-1.655,6.073-7.726,14.9-7.726,14.9l-11.041,5.519s-3.857,3.312-6.068,3.864a62.047,62.047,0,0,0-7.726,3.312s-4.965-1.106-3.312,3.859,2.209,11.041,1.655,12.693-.549,4.97-.549,9.386-1.655,9.93-4.416,11.033-5.519,2.209-4.968,6.073.554,15.452.554,15.452l7.177,11.038s2.207-1.655,6.622-1.655,8.829-3.859,8.829-3.859,4.97,1.1,4.413-4.967,2.212-13.245,1.655-14.9,4.97-8.832,4.97-10.484,5.519-9.378,5.519-12.142,3.862-7.174,4.413-10.482,1.1-11.038,2.207-13.245a14.671,14.671,0,0,0,1.657-6.622v-6.622l-3.923-12.161Z" transform="translate(703.31 486.42)"/>
    </g>
    <g class="cls-11" transform="matrix(1, 0, 0, 1, -7.5, -5.3)">
      <path id="Path_12-2" data-name="Path 12" class="cls-2" d="M679.745,358.916c-1.655,2.2-2.758,25.938-3.862,28.7s-3.312,17.109-2.2,20.416,2.756,15.454,1.655,19.318.552,16-2.212,15.452-3.857.554-3.857,2.207,3.857,4.965,3.857,4.965a71.656,71.656,0,0,0,9.386-.552c2.758-.552,8.277-3.312,12.693-3.312s7.177-3.312,11.036-3.312,12.144-2.756,14.351-1.655,5.517-6.622,9.381-4.965,12.144-3.864,16.006-3.864,5.519-6.073,9.935-4.965,12.693-2.207,16.557-.557,9.932-5.517,12.691,0,11.041,7.728,11.041,10.487-.559,8.831-.559,8.831l6.625-.554s10.482-6.622,12.142-6.622,5.519-5.517,5.519-2.756-3.315,8.831-4.416,11.587,1.1,6.073,1.1,6.073,5.524,2.758,3.315,7.723.549,3.867,0,7.726,0,2.207,2.2,4.413,6.078,6.078,9.386,5.522,4.413-3.862,7.174-2.207,8.275.552,9.93,2.761-10.482,7.723,10.489-1.655,23.172-11.592,25.933-14.9,6.078-6.62,8.28-8.829.557-1.655,7.174-6.622,6.622-2.758,12.7-12.141,10.482-12.691,11.59-14.348,3.31-2.207,3.862-8.834,4.965-12.691,4.965-14.9,1.655-5.514,1.1-9.381,2.209-9.378-1.1-14.9,1.655-7.723-3.312-9.937-8.277-1.1-9.381-4.965-5.522-3.312-7.177-13.8-8.277-11.592-8.277-11.592-6.622-2.758-4.968-3.859,2.209-8.834,1.66-11.041-.554-7.174-2.207-10.482-2.761-7.726-4.416-11.592-4.413-4.967-5.519-9.381a21.553,21.553,0,0,0-3.31-7.174c-.557-1.1-1.662-6.62-2.761-.554s-3.315,17.658-3.315,17.658-4.416,9.386-6.071,12.144-3.31,9.932-6.068,9.378-4.421,2.763-6.622,2.207-5.519.554-7.174-1.1-6.071-6.071-8.28-6.625-3.862-4.962-5.519-4.962-4.416-3.867-3.862-6.073,1.1-7.172,1.655-9.381,3.864-7.177,3.864-7.177,0-3.31-2.761-3.31a76.524,76.524,0,0,1-9.383-.554c-6.068-.554-7.721-1.1-9.935-1.1s2.212-1.1-3.862.552-8.829,6.073-12.693,9.937-.549,2.756-3.857,3.862-2.761-2.761-4.97,3.313,1.106,7.723-.557,8.829-13.24-3.862-13.24-3.862,2.758-.554.549-3.312-4.413-6.62-7.721-4.965-6.078,2.761-8.28,5.519-2.209,4.965-3.864,7.172-6.068,2.207-6.622,4.416-.552,7.726-2.2,8.277-2.207-2.2-3.862-2.756-1.106-4.967-2.207-2.207-2.207,2.2-3.862,6.62-2.209,8.28-3.864,8.832,0,1.1-4.97,3.864-6.068,2.758-13.24,6.071-5.517,3.312-10.484,3.862-6.073,2.209-9.383,2.761a13.512,13.512,0,0,0-8.832,4.413,17.054,17.054,0,0,1-8.275,4.967,11.171,11.171,0,0,0-4.315,2.721Z" transform="translate(979.16 503.49)"/>
    </g>
    <g class="cls-10" transform="matrix(1, 0, 0, 1, -7.5, -5.3)">
      <path id="Path_13-2" data-name="Path 13" class="cls-2" d="M715.729,220.977c-2.2,3.315-9.378,13.245-12.137,13.8s-5.521,3.312-7.728,2.758-7.174,0-8.829,7.174-4.416,11.038-6.076,10.484,2.758,10.484-6.62,6.073-6.068,3.864-7.174,6.073,1.655,8.277,2.207,10.484a34.574,34.574,0,0,0,4.416,9.378c2.207,3.312,3.862,7.174,7.726,6.076s16,0,16,0,4.421,1.655,7.177,1.655,3.312-1.1,4.965-1.1,4.965-5.522,4.416-6.071-2.2-2.209,1.1-5.522,7.174-4.413,7.728-8.277-1.1-3.862.552-6.073,5.517-1.65,4.416-3.862,1.1-1.655-1.106-6.073S721.8,251.88,724,246.361s4.421-6.622,3.867-9.932,2.758-4.416-1.106-8.28-5.517-4.965-8.277-6.073l-2.721-1.128Z" transform="translate(975.73 384.14)"/>
    </g>
    <g class="cls-9" transform="matrix(1, 0, 0, 1, -7.5, -5.3)">
      <path id="Path_14-2" data-name="Path 14" class="cls-2" d="M734.527,244.668c2.212-.552,9.935-6.071,10.489,3.864s1.1,7.172,4.416,12.691,5.512,7.179,9.376,4.418,8.277-2.763,9.381-7.726,1.106-4.967,4.416-4.967,4.416-.552,6.078,1.66,2.751,0,9.93,3.859,13.242,2.756,17.663,6.622,6.622,3.315,12.691,5.519,3.31-1.1,8.829,4.967,3.317,7.723,6.071,10.484,4.97-2.209,3.864,4.413-8.829,0,2.761,9.378,13.245,11.043,17.1,13.8,6.625,6.073,3.317,6.073-13.8,0-14.9-1.657-6.071-2.761-9.386-6.622-10.482-6.622-12.134-9.932-3.867-4.416-6.625-4.416-5.517,3.31-9.383,7.174-2.2-2.2-7.174-.552-10.482-.554-13.245-2.761-2.2-5.517-6.617-3.862-7.174.552-5.519-2.758.549-7.728.549-7.728,1.66-5.519-2.2-6.62-3.864-4.965-7.728-6.073a93.01,93.01,0,0,1-9.932-3.862,8.723,8.723,0,0,1-2.209-.552,59.055,59.055,0,0,0-6.071-1.655c-4.413-1.106-7.728,0-9.932-2.761s-1.106-6.622-1.106-6.622,8.829,1.1,0-5.519l-8.829-6.62a1.213,1.213,0,0,0,.549-1.657c-.564-1.128,5.517-.025,5.517-.025Z" transform="translate(1065.11 421.56)"/>
    </g>
    <g class="cls-8" transform="matrix(1, 0, 0, 1, -7.5, -5.3)">
      <path id="Path_15-2" data-name="Path 15" class="cls-2" d="M630.63,224.78a9.053,9.053,0,0,0,7.174,2.209c4.413-.554,7.721,8.829,10.486,12.139s4.416,4.967,10.484,8.832,5.517-3.312,13.8,8.277,4.413,4.416,8.277,11.587,6.071,11.041,8.277,12.7,3.864,6.066,4.418,7.723,4.411,6.62,4.411,8.277,1.106,6.071-2.2,9.932-6.073,4.416-6.073,4.416-6.622-3.312-8.829-6.622-4.965-6.071-8.832-12.691-8.277-13.8-10.484-17.109-5.519-6.627-7.174-9.935-6.071-13.245-8.277-14.351-2.761-4.413-6.625-8.277-3.31-7.174-4.965-9.381-5.517-7.179-5.517-7.179l1.618-.539Z" transform="translate(920.66 391.51)"/>
    </g>
    <g class="cls-7" transform="matrix(1, 0, 0, 1, -7.5, -5.3)">
      <path id="Path_16-2" data-name="Path 16" class="cls-2" d="M279.778,686.989c-3.864-2.207-12.142-6.071-14.9-8.277s-11.036-14.353-11.036-14.353l-6.073-11.59s-7.172-8.829-5.517-12.139,4.967-5.519,4.967-7.174,3.31-6.073.549-7.726-2.758-2.207-4.416-7.174-1.655-9.386-3.862-10.487-3.864-8.277-6.071-8.829S229,594.824,229,594.824l-3.312-44.7s-1.106-20.416-2.207-24.835,1.655-13.794-1.106-22.074.554-18.21-1.1-21.522,1.1-12.691-.552-21.52,6.622-19.867,0-23.177-1.655-8.28-7.174-8.28-9.381-2.761-14.348-6.62-14.351-11.041-17.109-13.8-11.59-9.932-14.348-12.139-5.519-11.59-7.726-14.351-3.31-11.033-6.622-16-7.726-13.242-8.832-14.9-13.245-16-13.245-16l1.1-8.829s8.277-4.967,7.174-6.622.554-3.315-3.312-6.622a8.187,8.187,0,0,1,0-12.141c3.312-2.763,8.277-11.592,8.277-11.592l8.277-13.794s6.625-7.179,6.625-12.144,9.381-8.275,3.862-12.691-2.758-8.28-4.416-11.592-.552-5.517,4.416-8.829,13.8-15.452,13.8-15.452,6.622-1.657,8.277-1.657,4.416-17.663,9.383-6.073,6.622,5.519,4.967,13.8,2.207,6.625,4.413,4.418-1.106,1.655,3.31-8.282,2.761-13.242,5.519-10.482,3.862,3.312,8.829,4.967,6.622,1.1,8.275,4.413,1.106-1.1,10.487.554,22.626-3.312,20.971,2.2-4.967-.552,2.758,5.519,8.832,7.174,13.245,8.28,8.277.552,14.9,7.174,8.277,7.174,9.932,10.482,4.413,1.106,7.174,4.416,6.622,3.315,10.484,3.315,0-3.315,6.071,1.1,10.487,4.963,13.245,13.794,8.277,8.28,3.862,17.111-13.242,12.693-9.381,12.142,11.038-3.867,13.245-3.312,3.31-1.655,6.622,0,3.864-2.207,3.312,1.655-.554,0-.554,3.864-1.1-3.864,5.519-2.207,2.758-3.315,10.484,3.862,7.728,4.97,10.484,8.832,5.519-2.2,7.177-.552,6.622.549,11.59,1.655,1.655-3.31,9.383,1.655,15.452,3.31,17.107,7.726,6.073,2.758,8.277,5.519,3.31-1.106,5.519,2.761,8.831,2.756,7.726,6.618,1.653,1.657.549,7.174-4.967,14.353-8.275,16.557-3.31,4.967-5.519,7.726-1.655-2.758-4.416,4.967-2.207,8.831-4.413,16-.552,0-2.207,7.174-.552,11.59-2.207,19.87-1.1,8.277-2.207,14.348,2.758-2.756-2.209,9.932-5.517,12.139-7.172,17.661.552,1.1-5.519,4.416-2.758,2.207-9.935,4.416-16,4.418-18.761,4.967-13.8,3.862-10.484,10.482,3.312,7.728,0,16.008-8.277,11.038-8.277,14.9-2.209,7.723-2.758,10.484,4.965-2.761-1.655,5.519-7.174,6.071-9.383,11.038,0,1.1-2.207,4.965-7.726,5.517-7.726,5.517.549,2.761-1.657,1.657-1.655.552-9.935-1.657-9.381-7.721-10.484-3.862.552,6.073,5.519,9.935,13.245,4.965,11.036,8.831a39.494,39.494,0,0,1-3.862,6.071c-1.657,2.209,2.207.552-1.657,2.209S317.847,586,316.192,586s-2.761,2.758-4.967,1.655-7.723-4.968-8.829-2.761-3.312-2.761-2.761,4.965,1.657,12.141-1.1,13.8-9.383,0-9.383,0l-1.1-2.761-3.862,1.1s-1.655,6.622,1.1,7.726,2.207,2.2,4.965,5.517,1.106,9.383,1.106,9.383,0,1.657-2.758,4.416a16.8,16.8,0,0,0-4.416,6.622c-.554,1.655-3.864,8.831,1.1,8.277s8.832-3.312,8.832,5.519,2.207,6.625-.552,12.693-4.967,6.622-5.519,12.139.554,6.071,1.657,9.383,3.864,1.655,1.1,3.312c-2.746,1.569-11.009-.073-11.009-.073Z" transform="translate(198.15 397.26)"/>
    </g>
    <g class="cls-6" transform="matrix(1, 0, 0, 1, -7.5, -5.3)">
      <path id="Path_17-2" data-name="Path 17" class="cls-2" d="M328.051,490.883l-3.862-5.517s-1.655-3.315-4.416-3.864-8.832-7.726-8.832-7.726a8.224,8.224,0,0,1-2.758-6.068c0-3.864-2.209-9.932-.554-16.555s2.209-14.9,1.657-17.109,2.758-2.758-1.1-4.967-11.59-2.758-16.557-2.758a39.41,39.41,0,0,0-12.142,2.207c-1.1.552,6.071-16.555,7.174-19.313s6.071-14.9,6.071-16.555,1.655-2.209-1.655-4.413-8.829-3.312-12.142-1.657-2.758-2.207-5.517,4.413-5.519,13.8-8.832,14.9-9.932,4.416-9.932,4.416-8.277-.552-11.038-1.1-14.348-6.622-16.555-10.484-3.31-12.144-3.31-16,6.068-15.452,5.517-18.212,6.073-13.8,5.519-15.454,1.1-7.174,2.758-9.381,9.935-4.967,12.142-7.174a25.3,25.3,0,0,1,9.932-6.071c3.862-1.106,7.177-2.207,9.935-2.207s9.932-6.071,11.036,0,6.073,3.862,8.832,4.413,3.312,3.312,7.726-3.862,8.829-9.383,8.829-7.728,7.174-.549,8.277,1.106,3.312-1.106,7.174,2.207,9.381,3.864,8.829,5.517,2.207,1.655,2.207,3.312,2.209-3.864,2.209,6.068,2.758,16.006,2.758,16.006,3.862,8.28,5.517,6.622,4.965-6.068,4.965-6.068,5.519-3.312,1.657-14.9-1.1-14.9-2.207-18.764-1.106-6.073,5.517-11.038,22.626-16,26.49-18.21,12.691-8.277,12.691-8.277a7.975,7.975,0,0,0,3.864-6.071c.552-4.413,11.036-12.142,11.59-14.348s7.728-7.723,7.728-7.723,7.723-4.418,7.172-7.174,9.935-7.723,11.59-7.723,10.487,2.756,10.487-2.212,0-6.071,5.519-10.484,12.691-11.038,15.452-11.038,12.142-4.963,16-6.068,16.006-6.625,4.967,0-3.864,2.758-6.071,8.277-3.864,12.693,6.622,4.413,9.932-9.935,13.8-10.484,1.1,1.655,9.381-1.106,8.832-3.862,8.832-3.862,3.864-3.312,1.655-4.965,2.209-3.864-6.071-.554-7.726,3.864-13.245,2.207-13.8-1.106-7.726-6.625,13.8-7.174,8.829-9.381-17.658.554-19.313,1.1-5.519-.552-8.832,0-2.207-4.411,0-5.517a95.53,95.53,0,0,1,18.212-6.625c8.829-2.207,30.354-2.758,35.319-2.758s11.587,1.106,15.452-1.655,11.59-7.172,12.693-9.383,5.519-5.517,5.519-5.517,4.965-4.967,2.207-7.174-5.519-7.174-7.726-6.071-.549,7.728-4.965.552-3.864-8.277-6.071-9.932-4.416-.554-2.758-8.277,1.1-11.038,1.1-11.038,1.655-6.62,0-7.172-2.758-2.207-5.517-.554-18.212,9.383-21.522,11.038-7.728-6.622-6.073-10.484.552-1.657-1.655-7.174-11.036-6.625-14.348-6.625-11.036-4.967-13.245-1.655-13.794,13.794-16.006,14.9-5.517-9.381-7.172,7.726,6.071,22.076-2.758,23.18a45.223,45.223,0,0,0-16.557,6.068s-7.172.554-7.172,4.967-2.758,14.9-6.073,16-11.59-.549-14.348-3.862.552-15.452.552-15.452l4.967-4.967s-35.319-5.517-34.77-7.726-10.484-6.068-11.587-9.381-1.657-10.487-.552-13.245,16-16,23.729-18.761S414.137,81.413,418,80.307s10.484-.552,12.693-3.31,2.758-7.726,2.758-7.726-1.1-7.728,1.1-6.625,6.071,2.761,6.622,4.416.554,5.519,4.416,1.1,8.832-6.071,13.245-8.275,11.036-1.655,14.9-3.862,10.484-4.416,11.036-9.935-1.655-3.862-4.416-4.416,1.1.554-8.277,4.967-6.622,1.1-13.245,4.413-7.177,3.864-7.726,1.106,1.1-7.174,1.1-7.174.554-.554-3.31-1.655-3.864.552-4.416-4.413,2.758-12.142-2.758-9.935-10.484-1.655-14.348,9.381-17.109,22.628-20.421,19.867-3.862-3.312-6.622-3.312-6.622-3.31-11.59-3.862-19.87-.552-23.729,0-8.277-2.207-11.592,1.106-8.275,7.726-8.275,9.383-4.967-6.073-6.622-5.519-6.073-2.207-11.036-2.207-8.28-2.761-9.932-2.761,1.653-4.416,0-4.967-37.53-1.655-37.53-1.655-11.587-4.413-16-3.862-16.555,1.1-25.941,2.758-23.18,7.174-27.593,7.726-14.348.554-16-2.207.552-2.207-1.657-2.758-.549-1.655-5.517-5.517,2.209-7.174-7.726-7.174-16-.554-24.832,0-27.041,4.965-29.248,4.413-19.867,2.761-22.628,1.106-16.557,6.068-19.313,5.517-13.245.554-16,2.209-16.006,4.965-11.59,7.726,3.862,5.517,4.413,7.174-4.413,5.517-4.413,5.517-1.106,0-7.174-2.207-12.693-3.31-15.454-1.655-7.726,4.97-6.622,7.177,8.829,7.174,9.935,5.517,3.864-4.965,7.174-4.413,8.28-2.207,3.864,3.312-8.28,8.277-11.038,8.832-9.381,1.1-15.452,1.655S15.694,83.078,10.177,88.6,2.451,90.8,1.348,96.874s-2.207,6.068,0,7.726-4.416,2.207.552,3.862,11.036,3.312,10.484,4.965,5.519-2.2,2.207,2.207-5.517,8.277,1.1,3.864,10.484-1.106,16-3.864,11.038-3.31,14.348-5.517,4.967-5.517,9.935-7.177,1.655.554,2.207,3.312,0,3.31,3.312,1.1,3.31-.549,7.726-3.31,9.381-5.519,12.693-3.864,4.413,1.657,6.622,1.657-2.758-.554,2.207,0-2.207-1.657,14.348,2.207,20.973,1.1,22.074,7.174,3.312-.554,6.071,3.31,4.416.554,6.071,7.174,0,24.835-1.1,27.041-1.655,2.207-1.1,7.174,7.174,28.7,4.967,30.351-7.174,2.207-7.174,2.207l-2.758,9.932s-4.413,8.277-8.277,12.693-8.829,9.935-11.59,13.794-4.967,10.489-8.829,14.351-7.174,2.207-6.071,10.484,0,17.106,1.1,23.18,3.864,14.348,6.071,17.661,3.864,3.31,7.726,6.068,8.832,6.073,8.277,8.832.552,19.87.552,19.87a31.183,31.183,0,0,1,3.862,11.587c.554,6.073,4.416,12.142,4.416,12.142l3.312,7.177s1.655.554,3.864,4.965,2.207,4.416,2.758,6.62.554,1.657.554,2.212-.554-9.383-1.657-12.144-1.1-6.068-2.207-9.381.552-7.177-2.758-12.142-3.31-5.519-4.965-10.487-3.864-10.484-1.655-11.59,3.862-8.275,8.277,0,4.967,6.073,5.519,12.7,2.207,8.832,3.862,11.587,5.517,12.144,7.726,16,0-2.207,4.965,5.519a87.107,87.107,0,0,1,8.28,15.452c2.758,6.071,4.416,6.071,6.071,10.484s.552,3.312-.554,8.277,1.1,10.487,1.1,10.487,7.726,2.758,8.277,4.413,8.277,4.413,9.383,6.622,8.277,4.965,8.277,4.965,6.071,3.864,8.275,4.967,8.834,2.209,8.834,2.209,4.413,1.106,6.068,1.655,6.622.552,6.622.552,4.416-3.31,6.071-2.207,5.519-2.209,7.174.549,4.967,2.761,6.622,4.97,3.31,2.207,6.071,4.965,5.519,2.207,8.277,4.413,4.965,2.207,8.277,2.207,3.31,0,5.519.554,3.31-1.657,5.517,1.106,3.862,4.413,5.517,7.172,5.519,2.758,6.071,7.174,1.655,3.867,1.655,7.726,2.207,5.519,3.864,6.625,7.723,6.618,7.723,6.618l8.277,1.657,6.622,4.967,6.988,2.207Z" transform="translate(7.5 46.78)"/>
    </g>
    <g class="cls-5" transform="matrix(1, 0, 0, 1, -7.5, -5.3)">
      <path id="Path_18-2" data-name="Path 18" class="cls-2" d="M210.192,19.688,243.3,15.549s11.587,0,17.384-4.139,0-4.139,17.384-7.449S290.49-1.006,299.6.649s11.587,1.657,21.522,3.312,12.416-.826,21.52,1.655,13.245,1.655,20.7,1.655h23.177c11.59,0,22.351-6.622,26.49-2.484s6.622,2.484,20.7,4.139,19.867-1.657,25.661,0,15.731-.826,27.318,0S504.06,8.1,508.2,8.1s8.275-5.8,14.071-.829,13.245-1.655,14.071,4.967,11.59,1.655.829,6.622S528.064,23,520.613,29.623s4.967,12.416-10.761,18.212-18.212-3.312-22.351,6.622,0,12.416-.826,17.384-2.484,5.794-7.451,9.932-4.965,0-16.555,2.484-19.867,4.967-24.832,4.967-15.729,4.139-19.041,5.794,5.8,4.139-11.59,9.106-21.525,4.141-26.49,10.761-3.312,7.454-6.622,11.592-13.245,20.7-18.212,16.557-7.451-3.312-11.59-7.451-6.622-9.932-9.106-13.245-3.312-11.59-4.139-16.557-8.28-16.555,0-14.9,13.245.829,15.729-.826,4.967-7.451,4.967-7.451-.826-9.106-3.312-14.074-.826-9.106-4.965-14.071-4.139-4.139-9.935-9.106-4.139-7.451-13.245-8.277-11.59-3.312-14.9-2.484-14.071-5.8-2.484-6.622a113.133,113.133,0,0,1,22.351.826s14.9-6.622,9.935-7.449,7.449-8.28-4.139-5.8-24.832,5.8-28.145,6.622-11.59,1.655-19.867,4.139-18.212,1.657-23.177,7.451,0,6.622-4.967,5.794,4.139-5.794-7.449,0-8.277,4.967-14.071,3.312a45.667,45.667,0,0,1-9.935-4.139s7.454-.829-3.31-1.655-10.761-.826-14.9-5.8-1.655-4.967.826-6.622a15.1,15.1,0,0,0,4.119-4.97Z" transform="translate(302.23 5.3)"/>
    </g>
    <g class="cls-4" transform="matrix(1, 0, 0, 1, -7.5, -5.3)">
      <path id="Path_19-2" data-name="Path 19" class="cls-2" d="M205.6,23.223c-4.139,4.139-14.074,9.935-11.587,12.419s4.139,11.59,9.106,9.106-.829-10.761,18.21-4.139,17.384-.826,21.522,9.106S250.3,67.1,247.82,69.582s-3.31,4.967-11.59,7.451-11.59,5.8-5.794,9.932,16.557,8.277,21.522,10.764,19.867,3.312,12.416-4.965S266.03,82,266.03,82s14.074,10.764,9.109-1.655-8.28-12.416-4.967-12.416,9.932,4.139,9.932,4.139l3.312-6.622L280.1,54.685,269.343,43.924s9.1-8.277-3.312-9.932-11.59-1.655-18.212-5.8-7.449-5.794-19.867-3.31S211.4,29.024,211.4,29.024l-5.762-5.8Z" transform="translate(288.6 39.01)"/>
    </g>
    <g class="cls-3" transform="matrix(1, 0, 0, 1, -7.5, -5.3)">
      <path id="Path_20-2" data-name="Path 20" class="cls-2" d="M123.22,35.464C128.187,30.5,141.432,18.91,146.4,22.22s12.414-2.484,18.21,2.484,12.416,10.761,17.384,12.416,10.761-4.139,15.729-1.655,22.349-12.416,19.039-.826,4.139,14.9-4.967,15.729-19.039,7.451-23.18,4.967-7.451-4.967-14.074-1.655-3.31,3.31-10.761,1.655-9.1,1.655-10.759-.829-6.622-1.655-5.8-9.106,3.31-6.622-1.657-6.622-9.1.829-12.416-1.655c-3.285-2.484-9.905-1.657-9.905-1.657Z" transform="translate(186.39 36.71)"/>
    </g>
  </g>
</svg>
