<svg id="fi-rr-info" xmlns="http://www.w3.org/2000/svg" width="35" height="35" viewBox="0 0 35 35">
  <path id="Path_28" data-name="Path 28" d="M17.5,0A17.5,17.5,0,1,0,35,17.5,17.5,17.5,0,0,0,17.5,0Zm0,32.083A14.583,14.583,0,1,1,32.083,17.5,14.583,14.583,0,0,1,17.5,32.083Z"/>
  <path id="Path_29" data-name="Path 29" d="M12.917,10H11.458a1.458,1.458,0,1,0,0,2.917h1.458v8.75a1.458,1.458,0,1,0,2.917,0v-8.75A2.917,2.917,0,0,0,12.917,10Z" transform="translate(4.583 4.583)"/>
  <circle id="Ellipse_9" data-name="Ellipse 9" cx="2.187" cy="2.187" r="2.187" transform="translate(15.313 7.292)"/>
</svg>
