<svg id="fi-rr-exit" xmlns="http://www.w3.org/2000/svg" width="35.333" height="35.333" viewBox="0 0 35.333 35.333">
  <path id="Path_23" data-name="Path 23" d="M31.253,11.142,25.543,5.431a1.472,1.472,0,1,0-2.082,2.082l5.711,5.711a3.028,3.028,0,0,1,.442.574c-.022,0-.04-.012-.062-.012h0l-23.09.047a1.472,1.472,0,0,0,0,2.944h0l23.082-.047c.041,0,.075-.021.115-.024a2.944,2.944,0,0,1-.492.68L23.455,23.1a1.472,1.472,0,1,0,2.082,2.082l5.711-5.711a5.889,5.889,0,0,0,0-8.327Z" transform="translate(2.362 2.361)"/>
  <path id="Path_24" data-name="Path 24" d="M10.306,32.389H7.361a4.417,4.417,0,0,1-4.417-4.417V7.361A4.417,4.417,0,0,1,7.361,2.944h2.944a1.472,1.472,0,1,0,0-2.944H7.361A7.37,7.37,0,0,0,0,7.361V27.972a7.37,7.37,0,0,0,7.361,7.361h2.944a1.472,1.472,0,1,0,0-2.944Z"/>
</svg>
