<svg xmlns="http://www.w3.org/2000/svg" width="35.021" height="35" viewBox="0 0 35.021 35">
  <path id="fi-rr-home" d="M33.738,13.224,22.67,2.154a7.308,7.308,0,0,0-10.32,0L1.283,13.224A4.346,4.346,0,0,0,0,16.319V30.644a4.378,4.378,0,0,0,4.378,4.378H30.643a4.378,4.378,0,0,0,4.378-4.378V16.319A4.346,4.346,0,0,0,33.738,13.224ZM21.888,32.1H13.133V26.362a4.378,4.378,0,0,1,8.755,0ZM32.1,30.644A1.459,1.459,0,0,1,30.643,32.1H24.807V26.362a7.3,7.3,0,0,0-14.592,0V32.1H4.378a1.459,1.459,0,0,1-1.459-1.459V16.319a1.471,1.471,0,0,1,.428-1.032L14.414,4.222a4.389,4.389,0,0,1,6.193,0l11.068,11.07a1.471,1.471,0,0,1,.428,1.027Z" transform="translate(0 -0.021)"/>
</svg>
