<svg xmlns="http://www.w3.org/2000/svg" width="35.333" height="35.334" viewBox="0 0 35.333 35.334">
  <g id="fi-rr-settings-sliders" transform="translate(0 0)">
    <path id="Path_25" data-name="Path 25" d="M1.472,6.993H5.5a5.488,5.488,0,0,0,10.593,0H33.861a1.472,1.472,0,1,0,0-2.944H16.093a5.488,5.488,0,0,0-10.593,0H1.472a1.472,1.472,0,0,0,0,2.944ZM10.8,2.945A2.576,2.576,0,1,1,8.219,5.521,2.576,2.576,0,0,1,10.8,2.945Z"/>
    <path id="Path_26" data-name="Path 26" d="M33.861,12.3H29.833a5.487,5.487,0,0,0-10.591,0H1.472a1.472,1.472,0,0,0,0,2.944h17.77a5.487,5.487,0,0,0,10.591,0h4.028a1.472,1.472,0,1,0,0-2.944Zm-9.324,4.049a2.576,2.576,0,1,1,2.576-2.576,2.576,2.576,0,0,1-2.576,2.576Z" transform="translate(0 3.895)"/>
    <path id="Path_27" data-name="Path 27" d="M33.861,20.549H16.093a5.488,5.488,0,0,0-10.593,0H1.472a1.472,1.472,0,0,0,0,2.944H5.5a5.488,5.488,0,0,0,10.593,0H33.861a1.472,1.472,0,1,0,0-2.944ZM10.8,24.6a2.576,2.576,0,1,1,2.576-2.576A2.576,2.576,0,0,1,10.8,24.6Z" transform="translate(0 7.792)"/>
  </g>
</svg>
