<svg xmlns="http://www.w3.org/2000/svg" width="35" height="34.969" viewBox="0 0 35 34.969">
  <path id="fi-rr-plane-alt" d="M15.587,34.991a3.92,3.92,0,0,1-3.713-5.173L14.7,21.865H8.979L7.4,24.266a4.365,4.365,0,0,1-3.659,1.975h0a3.728,3.728,0,0,1-3.5-5.008L1.6,17.49.231,13.757A3.726,3.726,0,0,1,.67,10.344a4.1,4.1,0,0,1,6.708.36l1.6,2.411H14.7L11.88,5.186A3.938,3.938,0,0,1,12.4,1.625a4.2,4.2,0,0,1,7.025.645l6.208,10.846h4.832a4.5,4.5,0,0,1,4.473,3.646,4.375,4.375,0,0,1-4.317,5.1H25.637L19.414,32.736a4.359,4.359,0,0,1-3.827,2.255Zm-7.4-16.042H16.77A1.467,1.467,0,0,1,18.144,20.9l-3.515,9.877a.986.986,0,0,0,.146.882,1.313,1.313,0,0,0,2.1-.341l6.654-11.636a1.458,1.458,0,0,1,1.266-.729h5.833a1.458,1.458,0,0,0,1.436-1.714,1.579,1.579,0,0,0-1.593-1.2H24.791a1.458,1.458,0,0,1-1.266-.729L16.882,3.693a1.3,1.3,0,0,0-2.11-.368,1,1,0,0,0-.136.906l3.5,9.854a1.467,1.467,0,0,1-1.366,1.947H8.192a1.458,1.458,0,0,1-1.216-.654L4.944,12.316c-.333-.614-1.508-.929-1.881-.306a.789.789,0,0,0-.095.744l1.563,4.238a1.458,1.458,0,0,1,0,1.006L2.977,22.242a.811.811,0,0,0,.761,1.082h0a1.458,1.458,0,0,0,1.221-.659L6.965,19.6A1.458,1.458,0,0,1,8.192,18.949Z" transform="translate(-0.002 -0.021)"/>
</svg>
