<svg xmlns="http://www.w3.org/2000/svg" width="27.31" height="27.31" viewBox="0 0 27.31 27.31"><path d="M22.759,11.379H21.621V9.1a4.556,4.556,0,0,0-4.552-4.552H15.9a5.121,5.121,0,0,0-10.178,0H4.552A4.556,4.556,0,0,0,0,9.1v6.828a5.7,5.7,0,0,0,5.69,5.69H6.828a5.7,5.7,0,0,0,5.69,5.69h9.1a5.7,5.7,0,0,0,5.69-5.69v-5.69A4.556,4.556,0,0,0,22.759,11.379ZM10.81,2.276A2.851,2.851,0,0,1,13.6,4.552H8.022A2.849,2.849,0,0,1,10.81,2.276ZM5.69,19.345a3.418,3.418,0,0,1-3.414-3.414V9.1A2.278,2.278,0,0,1,4.552,6.828H5.69V9.1a1.138,1.138,0,0,0,2.276,0V6.828h5.69V9.1a1.138,1.138,0,0,0,2.276,0V6.828h1.138A2.278,2.278,0,0,1,19.345,9.1v2.276H11.379a4.556,4.556,0,0,0-4.552,4.552v3.414Zm19.345,2.276a3.418,3.418,0,0,1-3.414,3.414h-9.1A3.418,3.418,0,0,1,9.1,21.621v-5.69a2.278,2.278,0,0,1,2.276-2.276H22.759a2.278,2.278,0,0,1,2.276,2.276Zm-3.414-4.552v1.138a4.552,4.552,0,0,1-9.1,0V17.069a1.138,1.138,0,1,1,2.276,0v1.138a2.276,2.276,0,0,0,4.552,0V17.069a1.138,1.138,0,1,1,2.276,0Z"/></svg>