<svg id="visual" viewBox="0 0 1920 1080" width="1920" height="1080" xmlns="http://www.w3.org/2000/svg" xmlns:xlink="http://www.w3.org/1999/xlink" version="1.1"><rect x="0" y="0" width="1920" height="1080" fill="#002233"></rect><path d="M0 437L45.7 412.3C91.3 387.7 182.7 338.3 274.2 325.7C365.7 313 457.3 337 548.8 339.3C640.3 341.7 731.7 322.3 823 321C914.3 319.7 1005.7 336.3 1097 342.3C1188.3 348.3 1279.7 343.7 1371.2 345.7C1462.7 347.7 1554.3 356.3 1645.8 364.3C1737.3 372.3 1828.7 379.7 1874.3 383.3L1920 387L1920 0L1874.3 0C1828.7 0 1737.3 0 1645.8 0C1554.3 0 1462.7 0 1371.2 0C1279.7 0 1188.3 0 1097 0C1005.7 0 914.3 0 823 0C731.7 0 640.3 0 548.8 0C457.3 0 365.7 0 274.2 0C182.7 0 91.3 0 45.7 0L0 0Z" fill="#8ecae6"></path><path d="M0 361L45.7 352C91.3 343 182.7 325 274.2 313.7C365.7 302.3 457.3 297.7 548.8 285.8C640.3 274 731.7 255 823 264.8C914.3 274.7 1005.7 313.3 1097 321.2C1188.3 329 1279.7 306 1371.2 304.5C1462.7 303 1554.3 323 1645.8 319.2C1737.3 315.3 1828.7 287.7 1874.3 273.8L1920 260L1920 0L1874.3 0C1828.7 0 1737.3 0 1645.8 0C1554.3 0 1462.7 0 1371.2 0C1279.7 0 1188.3 0 1097 0C1005.7 0 914.3 0 823 0C731.7 0 640.3 0 548.8 0C457.3 0 365.7 0 274.2 0C182.7 0 91.3 0 45.7 0L0 0Z" fill="#53b7f2"></path><path d="M0 215L45.7 226.5C91.3 238 182.7 261 274.2 267C365.7 273 457.3 262 548.8 259.8C640.3 257.7 731.7 264.3 823 257.3C914.3 250.3 1005.7 229.7 1097 224.8C1188.3 220 1279.7 231 1371.2 223.2C1462.7 215.3 1554.3 188.7 1645.8 187.5C1737.3 186.3 1828.7 210.7 1874.3 222.8L1920 235L1920 0L1874.3 0C1828.7 0 1737.3 0 1645.8 0C1554.3 0 1462.7 0 1371.2 0C1279.7 0 1188.3 0 1097 0C1005.7 0 914.3 0 823 0C731.7 0 640.3 0 548.8 0C457.3 0 365.7 0 274.2 0C182.7 0 91.3 0 45.7 0L0 0Z" fill="#00a0fd"></path><path d="M0 208L45.7 197.8C91.3 187.7 182.7 167.3 274.2 163.3C365.7 159.3 457.3 171.7 548.8 176.2C640.3 180.7 731.7 177.3 823 176.7C914.3 176 1005.7 178 1097 182.2C1188.3 186.3 1279.7 192.7 1371.2 190.2C1462.7 187.7 1554.3 176.3 1645.8 166.3C1737.3 156.3 1828.7 147.7 1874.3 143.3L1920 139L1920 0L1874.3 0C1828.7 0 1737.3 0 1645.8 0C1554.3 0 1462.7 0 1371.2 0C1279.7 0 1188.3 0 1097 0C1005.7 0 914.3 0 823 0C731.7 0 640.3 0 548.8 0C457.3 0 365.7 0 274.2 0C182.7 0 91.3 0 45.7 0L0 0Z" fill="#0086ff"></path><path d="M0 49L45.7 55.3C91.3 61.7 182.7 74.3 274.2 80.5C365.7 86.7 457.3 86.3 548.8 91.2C640.3 96 731.7 106 823 111.3C914.3 116.7 1005.7 117.3 1097 117.3C1188.3 117.3 1279.7 116.7 1371.2 113.7C1462.7 110.7 1554.3 105.3 1645.8 96.5C1737.3 87.7 1828.7 75.3 1874.3 69.2L1920 63L1920 0L1874.3 0C1828.7 0 1737.3 0 1645.8 0C1554.3 0 1462.7 0 1371.2 0C1279.7 0 1188.3 0 1097 0C1005.7 0 914.3 0 823 0C731.7 0 640.3 0 548.8 0C457.3 0 365.7 0 274.2 0C182.7 0 91.3 0 45.7 0L0 0Z" fill="#0066ff"></path></svg>