<svg id="visual" viewBox="0 0 1920 1080" width="1920" height="1080" xmlns="http://www.w3.org/2000/svg" xmlns:xlink="http://www.w3.org/1999/xlink" version="1.1"><rect x="0" y="0" width="1920" height="1080" fill="#002233"></rect><path d="M0 641L45.7 665.7C91.3 690.3 182.7 739.7 274.2 752.3C365.7 765 457.3 741 548.8 738.7C640.3 736.3 731.7 755.7 823 757C914.3 758.3 1005.7 741.7 1097 735.7C1188.3 729.7 1279.7 734.3 1371.2 732.3C1462.7 730.3 1554.3 721.7 1645.8 713.7C1737.3 705.7 1828.7 698.3 1874.3 694.7L1920 691L1920 1081L1874.3 1081C1828.7 1081 1737.3 1081 1645.8 1081C1554.3 1081 1462.7 1081 1371.2 1081C1279.7 1081 1188.3 1081 1097 1081C1005.7 1081 914.3 1081 823 1081C731.7 1081 640.3 1081 548.8 1081C457.3 1081 365.7 1081 274.2 1081C182.7 1081 91.3 1081 45.7 1081L0 1081Z" fill="#8ecae6"></path><path d="M0 717L45.7 726C91.3 735 182.7 753 274.2 764.3C365.7 775.7 457.3 780.3 548.8 792.2C640.3 804 731.7 823 823 813.2C914.3 803.3 1005.7 764.7 1097 756.8C1188.3 749 1279.7 772 1371.2 773.5C1462.7 775 1554.3 755 1645.8 758.8C1737.3 762.7 1828.7 790.3 1874.3 804.2L1920 818L1920 1081L1874.3 1081C1828.7 1081 1737.3 1081 1645.8 1081C1554.3 1081 1462.7 1081 1371.2 1081C1279.7 1081 1188.3 1081 1097 1081C1005.7 1081 914.3 1081 823 1081C731.7 1081 640.3 1081 548.8 1081C457.3 1081 365.7 1081 274.2 1081C182.7 1081 91.3 1081 45.7 1081L0 1081Z" fill="#53b7f2"></path><path d="M0 863L45.7 851.5C91.3 840 182.7 817 274.2 811C365.7 805 457.3 816 548.8 818.2C640.3 820.3 731.7 813.7 823 820.7C914.3 827.7 1005.7 848.3 1097 853.2C1188.3 858 1279.7 847 1371.2 854.8C1462.7 862.7 1554.3 889.3 1645.8 890.5C1737.3 891.7 1828.7 867.3 1874.3 855.2L1920 843L1920 1081L1874.3 1081C1828.7 1081 1737.3 1081 1645.8 1081C1554.3 1081 1462.7 1081 1371.2 1081C1279.7 1081 1188.3 1081 1097 1081C1005.7 1081 914.3 1081 823 1081C731.7 1081 640.3 1081 548.8 1081C457.3 1081 365.7 1081 274.2 1081C182.7 1081 91.3 1081 45.7 1081L0 1081Z" fill="#00a0fd"></path><path d="M0 870L45.7 880.2C91.3 890.3 182.7 910.7 274.2 914.7C365.7 918.7 457.3 906.3 548.8 901.8C640.3 897.3 731.7 900.7 823 901.3C914.3 902 1005.7 900 1097 895.8C1188.3 891.7 1279.7 885.3 1371.2 887.8C1462.7 890.3 1554.3 901.7 1645.8 911.7C1737.3 921.7 1828.7 930.3 1874.3 934.7L1920 939L1920 1081L1874.3 1081C1828.7 1081 1737.3 1081 1645.8 1081C1554.3 1081 1462.7 1081 1371.2 1081C1279.7 1081 1188.3 1081 1097 1081C1005.7 1081 914.3 1081 823 1081C731.7 1081 640.3 1081 548.8 1081C457.3 1081 365.7 1081 274.2 1081C182.7 1081 91.3 1081 45.7 1081L0 1081Z" fill="#0086ff"></path><path d="M0 1029L45.7 1022.7C91.3 1016.3 182.7 1003.7 274.2 997.5C365.7 991.3 457.3 991.7 548.8 986.8C640.3 982 731.7 972 823 966.7C914.3 961.3 1005.7 960.7 1097 960.7C1188.3 960.7 1279.7 961.3 1371.2 964.3C1462.7 967.3 1554.3 972.7 1645.8 981.5C1737.3 990.3 1828.7 1002.7 1874.3 1008.8L1920 1015L1920 1081L1874.3 1081C1828.7 1081 1737.3 1081 1645.8 1081C1554.3 1081 1462.7 1081 1371.2 1081C1279.7 1081 1188.3 1081 1097 1081C1005.7 1081 914.3 1081 823 1081C731.7 1081 640.3 1081 548.8 1081C457.3 1081 365.7 1081 274.2 1081C182.7 1081 91.3 1081 45.7 1081L0 1081Z" fill="#0066ff"></path></svg>